<?xml version="1.0" encoding="utf-8"?>
<!-- Generator: Adobe Illustrator 19.0.0, SVG Export Plug-In . SVG Version: 6.00 Build 0)  -->
<svg version="1.1" id="Layer_1" xmlns="http://www.w3.org/2000/svg" xmlns:xlink="http://www.w3.org/1999/xlink" x="0px" y="0px"
	 viewBox="0 0 500 500" style="enable-background:new 0 0 500 500;" xml:space="preserve">
<style type="text/css">
	.st0{fill-rule:evenodd;clip-rule:evenodd;fill:#D2E3EC;}
	.st1{fill-rule:evenodd;clip-rule:evenodd;fill:url(#XMLID_56_);}
	.st2{fill:#231F20;}
	.st3{fill-rule:evenodd;clip-rule:evenodd;fill:url(#XMLID_57_);}
	.st4{fill-rule:evenodd;clip-rule:evenodd;fill:url(#XMLID_58_);}
	.st5{fill-rule:evenodd;clip-rule:evenodd;fill:url(#XMLID_59_);}
	.st6{fill-rule:evenodd;clip-rule:evenodd;fill:url(#XMLID_60_);}
	.st7{fill-rule:evenodd;clip-rule:evenodd;fill:#FFFFFF;}
	.st8{fill-rule:evenodd;clip-rule:evenodd;fill:url(#XMLID_61_);}
	.st9{fill-rule:evenodd;clip-rule:evenodd;fill:url(#XMLID_62_);}
	.st10{fill-rule:evenodd;clip-rule:evenodd;fill:url(#XMLID_64_);}
	.st11{fill-rule:evenodd;clip-rule:evenodd;fill:url(#XMLID_65_);}
	.st12{fill-rule:evenodd;clip-rule:evenodd;fill:#231F20;}
</style>
<g id="XMLID_1_">
	<path id="XMLID_32_" class="st0" d="M250,425c96.4,0,175-78.6,175-175c0-96.4-78.6-175-175-175c-96.4,0-175,78.6-175,175
		C75,346.4,153.6,425,250,425z"/>
	<g id="XMLID_2_">
		<radialGradient id="XMLID_56_" cx="113.2932" cy="119.9619" r="419.789" gradientUnits="userSpaceOnUse">
			<stop  offset="0" style="stop-color:#8A8C8F"/>
			<stop  offset="0.33" style="stop-color:#3E3938"/>
			<stop  offset="0.61" style="stop-color:#000000"/>
			<stop  offset="1" style="stop-color:#000000"/>
		</radialGradient>
		<path id="XMLID_31_" class="st1" d="M250,416.7c91.8,0,166.7-74.9,166.7-166.7c0-91.8-74.9-166.7-166.7-166.7
			c-91.8,0-166.7,74.9-166.7,166.7C83.3,341.8,158.2,416.7,250,416.7z"/>
		<path id="XMLID_3_" class="st2" d="M250,417.6c-92.4,0-167.6-75.2-167.6-167.6S157.6,82.4,250,82.4c92.4,0,167.6,75.2,167.6,167.6
			S342.4,417.6,250,417.6z M250,84.2c-91.4,0-165.8,74.4-165.8,165.8S158.6,415.8,250,415.8S415.8,341.4,415.8,250
			S341.4,84.2,250,84.2z"/>
	</g>
	<radialGradient id="XMLID_57_" cx="294.4656" cy="287.873" r="71.9741" gradientUnits="userSpaceOnUse">
		<stop  offset="0" style="stop-color:#A4C2D1"/>
		<stop  offset="0.51" style="stop-color:#646F73"/>
		<stop  offset="1" style="stop-color:#000000"/>
	</radialGradient>
	<path id="XMLID_28_" class="st3" d="M153.3,304.9c30.3,53.5,98.1,72.4,151.5,42.1s72.1-98.2,41.8-151.8
		c-30.3-53.5-98.1-72.4-151.5-42.1C141.8,183.4,123,251.3,153.3,304.9z"/>
	<radialGradient id="XMLID_58_" cx="178.9026" cy="189.6583" r="185.7752" gradientUnits="userSpaceOnUse">
		<stop  offset="0" style="stop-color:#A4C2D1"/>
		<stop  offset="0.4" style="stop-color:#54595D"/>
		<stop  offset="0.66" style="stop-color:#231F20"/>
		<stop  offset="1" style="stop-color:#000000"/>
	</radialGradient>
	<path id="XMLID_27_" class="st4" d="M215.2,351.9c56.3,19.3,117.5-10.8,136.7-67.1c19.2-56.3-10.9-117.5-67.2-136.8
		c-56.3-19.3-117.5,10.8-136.7,67.1C128.9,271.4,158.9,332.7,215.2,351.9z"/>
	<radialGradient id="XMLID_59_" cx="153.8405" cy="153.8892" r="132.5614" gradientUnits="userSpaceOnUse">
		<stop  offset="0" style="stop-color:#DEF2FC"/>
		<stop  offset="1" style="stop-color:#00ADEE"/>
	</radialGradient>
	<path id="XMLID_26_" class="st5" d="M147.9,247.6c0-55.1,44.7-99.7,99.7-99.7v99.7H147.9z"/>
	<linearGradient id="XMLID_60_" gradientUnits="userSpaceOnUse" x1="255.8875" y1="146.57" x2="172.048" y2="270.8671">
		<stop  offset="0" style="stop-color:#43525A"/>
		<stop  offset="1" style="stop-color:#DDE8EE"/>
	</linearGradient>
	<path id="XMLID_4_" class="st6" d="M146.6,247.6L146.6,247.6L146.6,247.6c0-27.9,11.3-53.1,29.6-71.4
		c18.3-18.3,43.5-29.6,71.4-29.6v0h0h1.2v1.2v99.7v1.2h-1.2h-99.7h-1.2V247.6L146.6,247.6z M177.9,178
		c-17.5,17.5-28.5,41.7-28.8,68.4h97.2v-97.2C219.6,149.5,195.5,160.4,177.9,178z"/>
	<path id="XMLID_20_" class="st7" d="M352.1,247.6c0-55.1-44.7-99.7-99.7-99.7v99.7H352.1z"/>
	<linearGradient id="XMLID_61_" gradientUnits="userSpaceOnUse" x1="353.3846" y1="197.7657" x2="251.1815" y2="197.7657">
		<stop  offset="0" style="stop-color:#43525A"/>
		<stop  offset="1" style="stop-color:#DDE8EE"/>
	</linearGradient>
	<path id="XMLID_5_" class="st8" d="M353.4,247.6L353.4,247.6L353.4,247.6l0,1.2h-1.2h-99.7h-1.2v-1.2v-99.7v-1.2h1.2h0v0
		c27.9,0,53.1,11.3,71.4,29.6C342.1,194.5,353.4,219.7,353.4,247.6L353.4,247.6z M350.9,246.4c-0.3-26.7-11.3-50.8-28.8-68.4
		c-17.6-17.6-41.7-28.5-68.4-28.8v97.2H350.9z"/>
	<path id="XMLID_16_" class="st7" d="M147.9,252.4c0,55.1,44.7,99.7,99.7,99.7v-99.7H147.9z"/>
	<linearGradient id="XMLID_62_" gradientUnits="userSpaceOnUse" x1="239.018" y1="241.0031" x2="178.3384" y2="330.9643">
		<stop  offset="0" style="stop-color:#43525A"/>
		<stop  offset="1" style="stop-color:#DDE8EE"/>
	</linearGradient>
	<path id="XMLID_6_" class="st9" d="M146.6,252.4L146.6,252.4L146.6,252.4l0-1.2h1.2h99.7h1.2v1.2v99.7v1.2h-1.2h0v0
		c-27.9,0-53.1-11.3-71.4-29.6C157.9,305.5,146.6,280.3,146.6,252.4L146.6,252.4z M149.1,253.6c0.3,26.7,11.3,50.8,28.8,68.4
		c17.6,17.6,41.7,28.5,68.4,28.8v-97.2H149.1z"/>
	<radialGradient id="XMLID_64_" cx="258.4066" cy="258.3582" r="132.5614" gradientUnits="userSpaceOnUse">
		<stop  offset="0" style="stop-color:#6DCEF5"/>
		<stop  offset="1" style="stop-color:#00ADEE"/>
	</radialGradient>
	<path id="XMLID_13_" class="st10" d="M352.1,252.4c0,55.1-44.7,99.7-99.7,99.7v-99.7H352.1z"/>
	<linearGradient id="XMLID_65_" gradientUnits="userSpaceOnUse" x1="353.3846" y1="302.2347" x2="251.1815" y2="302.2347">
		<stop  offset="0" style="stop-color:#43525A"/>
		<stop  offset="1" style="stop-color:#DDE8EE"/>
	</linearGradient>
	<path id="XMLID_7_" class="st11" d="M353.4,252.4L353.4,252.4L353.4,252.4c0,27.9-11.3,53.1-29.6,71.4
		c-18.3,18.3-43.5,29.6-71.4,29.6v0h0h-1.2v-1.2v-99.7v-1.2h1.2h99.7h1.2V252.4L353.4,252.4z M322.1,322
		c17.5-17.5,28.5-41.7,28.8-68.4h-97.2v97.2C280.4,350.5,304.5,339.6,322.1,322z"/>
	<path id="XMLID_8_" class="st12" d="M388.6,172.3L352.3,191l-7.8-9l14.2-21.8l-24.1,10l-7.5-9.2l24.9-33.2l6.3,7.8l-15.2,21.2
		l24.1-10.3l6.5,8L359,176.1l23.5-11.8L388.6,172.3L388.6,172.3z M223.3,135.7v-44h13.1l12.2,30.6l11.7-30.6l13.5-0.1v44l-8.9-0.1
		v-30.4l-11.5,30.5H243l-11.1-30.6l0.1,30.7L223.3,135.7L223.3,135.7z M112.4,164.3l16.7-19.9c4.7-5.6,9.2-12.3,17.2-12.1
		c7.3,0.2,11.7,7.4,9.2,14.1c10.5-6.2,22.2,5.5,15,17.3c-1.1,1.9-4.6,5.9-9.9,12.3l-14.2,16.9L112.4,164.3L112.4,164.3z
		 M125.8,160.1l7.9,6.6l5.5-6.6c3.3-3.9,4.9-6,5.6-7c1.3-1.8,2-3.5,2.2-5.1c0.2-1.5-0.3-2.8-1.4-3.7c-1.1-0.9-2.3-1.2-3.6-0.9
		c-1.4,0.3-2.8,1.2-4.4,2.8c-0.9,0.9-2.3,2.1-6.2,6.9L125.8,160.1L125.8,160.1z M139.3,171.5l9.1,7.6l8.5-10.4
		c3-3.7,2.8-3.7,3.5-4.8c1.1-1.7,1.6-3.2,1.7-4.8c0.1-1.5-0.5-2.8-1.7-3.8c-1-0.9-2.2-1.2-3.5-1.1c-1.3,0.1-2.7,0.7-4.2,1.8
		c-1.5,1.1-2.7,2.8-6.6,7.4L139.3,171.5z"/>
	<path id="XMLID_25_" class="st7" d="M387.6,171.3L351.2,190l-7.8-9l14.2-21.8l-24.1,10l-7.5-9.2l24.9-33.2l6.3,7.8l-15.2,21.2
		l24.1-10.3l6.5,8L358,175.1l23.5-11.8L387.6,171.3L387.6,171.3z M222.2,134.7v-44h13.1l12.2,30.6l11.7-30.6l13.5-0.1v44l-8.9-0.1
		v-30.4l-11.5,30.5h-10.3l-11.1-30.6l0.1,30.7L222.2,134.7L222.2,134.7z M111.4,163.3l16.7-19.9c4.7-5.6,9.2-12.3,17.2-12.1
		c7.3,0.2,11.7,7.4,9.2,14.1c10.5-6.2,22.2,5.5,15,17.3c-1.1,1.9-4.6,5.9-9.9,12.3l-14.2,16.9L111.4,163.3L111.4,163.3z
		 M124.7,159.1l7.9,6.6l5.5-6.6c3.3-3.9,4.9-6,5.6-7c1.3-1.8,2-3.5,2.2-5.1c0.2-1.5-0.3-2.8-1.4-3.7c-1.1-0.9-2.3-1.2-3.6-0.9
		c-1.4,0.3-2.8,1.2-4.4,2.8c-0.9,0.9-2.3,2.1-6.2,6.9L124.7,159.1L124.7,159.1z M138.3,170.5l9.1,7.6l8.5-10.4
		c3-3.7,2.8-3.7,3.5-4.8c1.1-1.7,1.6-3.2,1.7-4.8c0.1-1.5-0.5-2.8-1.7-3.8c-1-0.9-2.2-1.2-3.5-1.1c-1.3,0.1-2.7,0.7-4.2,1.8
		c-1.5,1.1-2.7,2.8-6.6,7.4L138.3,170.5z"/>
</g>
</svg>
