<?xml version="1.0" encoding="utf-8"?>
<!-- Generator: Adobe Illustrator 19.0.0, SVG Export Plug-In . SVG Version: 6.00 Build 0)  -->
<svg version="1.1" id="Layer_1" xmlns="http://www.w3.org/2000/svg" xmlns:xlink="http://www.w3.org/1999/xlink" x="0px" y="0px"
	 viewBox="0 0 500 500" style="enable-background:new 0 0 500 500;" xml:space="preserve">
<style type="text/css">
	.stb0{fill:#C41230;}
</style>
<g id="XMLID_20_">
	<path id="XMLID_30_" class="stb0" d="M239.5,345.2c-12.6-0.3-26.5-1.4-38.8-3.1c-52.4-7-96.3-25-120.7-49.4
		c-10.4-10.3-16.9-21.7-19.1-33.1c-0.7-3.7-0.9-5.5-0.9-9.6c0-4,0.2-5.8,0.9-9.6c1.5-7.5,4.9-15.2,10-22.4
		c11.5-16.2,31.8-30.7,58.3-41.6c44.3-18.3,102.2-25.5,158.6-19.8c66.2,6.7,120.7,30.9,142.4,63.2c9.9,14.8,12.3,30.8,7,46.5
		c-3.1,9.1-9,18.1-17.3,26.4c-23.1,23.1-63.9,40.5-112.8,48.2C285.3,344.3,262.7,345.8,239.5,345.2L239.5,345.2z M268.4,333
		c26.5-1.6,48.9-5.5,70.7-12.3c17.3-5.4,33.5-12.8,45.8-21.1c6.2-4.2,10.6-7.7,15.5-12.6c5.8-5.8,9.6-10.9,12.6-17.2
		c3.4-7,4.7-12.5,4.7-19.7c0-7.2-1.4-13-4.9-20c-3-6-6.8-11.2-12.5-16.9c-8.3-8.4-18.3-15.3-31.4-21.8
		c-24.5-12.3-55.2-20.3-89.4-23.4c-18.9-1.7-40.4-1.7-59.4,0c-48.1,4.3-89.3,18.6-114.8,39.7c-3.2,2.7-9,8.5-11.4,11.5
		C85.3,230,81.3,241.7,82.2,253c1,12.3,6.5,23.1,17.3,33.9c8.2,8.2,17.9,15,30.5,21.4c28.7,14.5,64.1,22.9,105.6,24.9
		C240.3,333.4,263.8,333.2,268.4,333z M133.7,298.2c-0.2-0.1-0.6-0.4-0.8-0.6c-0.4-0.5-0.4-0.8-0.5-44.8l-0.1-44.3l-0.5-0.6
		c-0.5-0.5-0.7-0.6-2.6-0.6l-2.1-0.1v-2.8v-2.8l15-0.1l15-0.1l0.6,0.5l0.6,0.5v16c0,17.6,0,16.9,1.2,16.9c0.8,0,1.1-0.3,5.4-6.5
		c11.6-16.4,17.9-25.3,18.5-26c1.4-1.5,0.8-1.5,15.4-1.5l13.1,0l0.5,0.5c0.6,0.6,0.8,1.5,0.6,2.1c-0.2,0.4-5.8,8.8-25.7,38.1
		c-2.2,3.2-2.8,4.2-2.8,4.8c0,0.5,1.4,2.7,7.4,11.1c26.5,37.5,26.6,37.6,26.7,38.3c0.1,0.6,0,0.9-0.4,1.3l-0.5,0.6l-13.7,0.1
		c-13.5,0.1-13.7,0.1-14.7-0.4c-0.6-0.2-1.2-0.7-1.5-1s-6.5-9-13.9-19.3c-7.3-10.3-13.5-18.9-13.7-19c-0.5-0.4-1.4-0.2-1.7,0.4
		c-0.2,0.4-0.3,4.6-0.3,19.3l0,18.8l-0.5,0.6l-0.5,0.6l-11.7,0C139.3,298.3,133.9,298.3,133.7,298.2L133.7,298.2z M237.6,298.1
		c-0.3-0.2-0.7-0.5-0.9-0.8c-0.2-0.4-0.3-10.3-0.3-44.7v-44.1l-0.6-0.6c-0.6-0.6-0.7-0.6-2.6-0.6h-2v-2.9v-2.9h15.3H262l0.7,0.6
		l0.7,0.6v47.2v47.2l-0.6,0.6l-0.6,0.6l-12,0C240.7,298.3,238.2,298.3,237.6,298.1L237.6,298.1z M282.2,298.1
		c-0.6-0.4-0.9-0.8-0.9-1.6c0-0.4,2.9-9.5,6.5-20.2c3.6-10.7,9.3-27.8,12.7-38c3.4-10.1,7-20.8,8-23.7c1-2.9,1.8-5.5,1.8-5.8
		s-0.2-0.8-0.4-1.1c-0.4-0.4-0.6-0.5-2.4-0.6l-2-0.1l-0.1-2.8l-0.1-2.8l18.4,0c12.1,0,18.7,0.1,19.2,0.2c0.4,0.1,0.9,0.4,1,0.6
		c0.3,0.5,2.3,6.6,12,35.6c15.8,47.2,19.4,58.1,19.4,58.5c0,0.7-0.4,1.5-1,1.7c-0.4,0.2-4,0.2-12,0.2c-10.6,0-11.6,0-12.2-0.4
		c-0.4-0.2-0.9-0.6-1.1-0.9c-0.2-0.3-1.8-5-3.6-10.5c-16.7-52.1-16.3-50.7-16.6-51.1c-0.4-0.5-0.7-0.5-1.2,0c-0.3,0.4-1,2.4-10.1,31
		c-2.6,8.3-5.5,17.3-6.3,19.9c-0.8,2.6-1.9,6-2.4,7.5c-0.9,3-1.3,3.7-2.4,4.1C305.5,298.5,282.8,298.5,282.2,298.1L282.2,298.1z"/>
</g>
</svg>
