<?xml version="1.0" encoding="utf-8"?>
<!-- Generator: Adobe Illustrator 19.0.0, SVG Export Plug-In . SVG Version: 6.00 Build 0)  -->
<svg version="1.1" id="Layer_1" xmlns="http://www.w3.org/2000/svg" xmlns:xlink="http://www.w3.org/1999/xlink" x="0px" y="0px"
	 viewBox="0 0 500 500" style="enable-background:new 0 0 500 500;" xml:space="preserve">
<style type="text/css">
	.st0{fill:#808184;}
	.st1{fill:url(#SVGID_1_);}
	.st2{fill:url(#XMLID_79_);}
	.st3{fill:url(#XMLID_80_);}
	.st4{fill:url(#SVGID_2_);}
	.st5{fill:#404041;}
	.st6{fill:url(#SVGID_3_);}
	.st7{fill:#FFFFFF;}
	.st8{fill:url(#SVGID_4_);}
	.st9{fill:url(#SVGID_5_);}
	.st10{fill:url(#SVGID_6_);}
	.st11{fill:url(#XMLID_81_);}
	.st12{fill:url(#XMLID_82_);}
	.st13{fill:url(#XMLID_84_);}
	.st14{fill:url(#XMLID_85_);}
	.st15{fill:#FF0000;}
</style>
<g id="XMLID_1_">
	<g id="XMLID_4_">
		<path id="XMLID_3_" class="st0" d="M97.1,205.6c0,54.6,68.6,99,152.9,99s152.9-44.4,152.9-99c0-54.6-68.6-99-152.9-99
			S97.1,151,97.1,205.6z M98.6,205.6c0-53.7,67.9-97.5,151.4-97.5c83.5,0,151.4,43.7,151.4,97.5c0,53.7-67.9,97.5-151.4,97.5
			C166.5,303.1,98.6,259.4,98.6,205.6z"/>
		<path id="XMLID_4_" class="st0" d="M235.5,124.9c-35,2.2-61.3,12-65.5,24.3c-0.4,1.2-0.6,2.4-0.6,3.6c0,1.9,0.5,3.8,1.6,5.7
			c4.8,8.5,19.9,15.5,41.6,19.4l0.7,0.1l0.1-0.8c3.7-23.5,11.9-42.1,22.5-50.9l1.8-1.5L235.5,124.9z M172.3,157.7
			c-0.9-1.6-1.4-3.3-1.4-4.9c0-1,0.2-2,0.5-3l0,0c3.9-11.3,29.3-20.7,62.1-23.1c-10,9.4-17.7,27.2-21.3,49.6
			C191.6,172.5,176.7,165.6,172.3,157.7z M170,149.2L170,149.2L170,149.2z"/>
		<path id="XMLID_5_" class="st0" d="M230.4,179.3l-0.1,0.8l0.8,0.1c6.2,0.5,12.5,0.7,18.9,0.7c6.4,0,12.8-0.2,18.9-0.7l0.8-0.1
			l-0.1-0.8c-3.4-19.7-10.9-31.9-19.6-31.9C241.3,147.4,233.8,159.6,230.4,179.3z M250,148.9c7.8,0,14.7,11.4,18,29.8
			c-5.9,0.4-11.9,0.7-18,0.7c-6.1,0-12.1-0.2-18-0.7C235.3,160.3,242.2,148.9,250,148.9z"/>
		<path id="XMLID_6_" class="st0" d="M264,126.3c10.6,8.9,18.8,27.4,22.5,50.9l0.1,0.8l0.7-0.1c21.7-3.8,36.9-10.9,41.6-19.4
			c1.7-3,2-6.1,1-9.3c-4.2-12.3-30.5-22.1-65.5-24.3l-2.3-0.1L264,126.3z M266.5,126.6c32.8,2.4,58.2,11.8,62.1,23.1
			c0.3,1,0.5,2,0.5,3c0,1.7-0.5,3.3-1.4,4.9c-4.4,7.9-19.3,14.7-39.9,18.5C284.2,153.9,276.5,136.1,266.5,126.6z"/>
		<path id="XMLID_7_" class="st0" d="M146.6,159.7c-15.9,13.8-24.3,30.2-24.3,47.4c0,40.7,48.1,75.2,111.9,80.2l2.3,0.2l-1.7-1.5
			c-14.5-12.9-23.5-43.4-23.5-79.4l0.1-7l-0.6-0.1c-35.2-6.6-59.3-21.6-62.9-39.2l-0.3-1.3L146.6,159.7z M123.9,207.1
			c0-16.4,7.9-32.1,22.9-45.4c4.6,17.6,28.5,32.5,63.2,39.1c0,1.1-0.1,5.8-0.1,5.8c0,35.1,8.6,65,22.4,79
			C170.3,280,123.9,246.6,123.9,207.1z"/>
		<path id="XMLID_8_" class="st0" d="M228.5,202.7l0,0.9c0,31.6,9.5,56.3,21.5,56.3c12.1,0,21.5-24.7,21.5-56.3l0-1.7l-0.8,0.1
			c-6.8,0.6-13.7,0.9-20.7,0.9s-14-0.3-20.7-0.9l-0.8-0.1L228.5,202.7z M230,203.5C230,203.5,230,203.5,230,203.5
			c6.5,0.5,13.3,0.8,20,0.8c6.8,0,13.5-0.3,20-0.9c0,0,0,0.1,0,0.1c0,30.7-8.8,54.8-20,54.8C238.8,258.3,230,234.3,230,203.5z"/>
		<path id="XMLID_9_" class="st0" d="M352.2,160.1c-3.6,17.6-27.8,32.7-62.9,39.2l-0.6,0.1l0.1,7c0,36.1-9,66.5-23.5,79.4l-1.7,1.5
			l2.3-0.2c63.8-5,111.9-39.4,111.9-80.2c0-17.2-8.4-33.6-24.3-47.4l-0.9-0.8L352.2,160.1z M353.3,161.7
			c14.9,13.4,22.9,29,22.9,45.4c0,39.5-46.5,72.9-108.4,78.4c13.9-14,22.4-43.9,22.4-79c0,0-0.1-4.7-0.1-5.8
			C324.7,194.1,348.7,179.3,353.3,161.7z"/>
		<linearGradient id="SVGID_1_" gradientUnits="userSpaceOnUse" x1="250.0023" y1="283.0546" x2="250.0023" y2="171.1252">
			<stop  offset="0" style="stop-color:#D0D2D3"/>
			<stop  offset="0.1575" style="stop-color:#F1F1F2"/>
			<stop  offset="0.1639" style="stop-color:#F0F0F1"/>
			<stop  offset="0.2592" style="stop-color:#E8E9EA"/>
			<stop  offset="0.44" style="stop-color:#E6E7E8"/>
			<stop  offset="0.5594" style="stop-color:#CFD0D1"/>
			<stop  offset="0.8087" style="stop-color:#949597"/>
			<stop  offset="1" style="stop-color:#626366"/>
		</linearGradient>
		<path class="st1" d="M352.2,147c0.2,0.6,0.4,1.3,0.6,1.9c0.9,3.7,0.7,7.3-0.4,10.9c15.4,13.2,24.5,29.6,24.5,47.3
			c0,44.2-56.8,80-126.9,80c-70.1,0-126.9-35.8-126.9-80c0-17.7,9.1-34,24.5-47.3c-1.2-3.5-1.3-7.2-0.4-10.9c0.2-0.7,0.4-1.3,0.7-2
			c-21,15.6-33.8,36.1-33.8,58.5c0,48.9,60.8,88.6,135.9,88.6c75,0,135.9-39.7,135.9-88.6C385.9,183,373.2,162.6,352.2,147z"/>
		<linearGradient id="XMLID_79_" gradientUnits="userSpaceOnUse" x1="269.7669" y1="186.0172" x2="232.5947" y2="154.8261">
			<stop  offset="0" style="stop-color:#E6E7E8"/>
			<stop  offset="0.44" style="stop-color:#E6E7E8"/>
			<stop  offset="0.5594" style="stop-color:#CFD0D1"/>
			<stop  offset="0.8087" style="stop-color:#949597"/>
			<stop  offset="1" style="stop-color:#626366"/>
		</linearGradient>
		<path id="XMLID_31_" class="st2" d="M231.1,179.4l-3.9,3c3.2-25.4,12.2-41.6,22.8-41.6c10.6,0,19.6,16.2,22.8,41.6l-3.9-3h0
			c-3.3-19.2-10.5-31.3-18.9-31.3C241.6,148.1,234.4,160.2,231.1,179.4L231.1,179.4z"/>
		<linearGradient id="XMLID_80_" gradientUnits="userSpaceOnUse" x1="273.335" y1="238.9142" x2="219.5656" y2="207.8704">
			<stop  offset="0" style="stop-color:#E6E7E8"/>
			<stop  offset="0.44" style="stop-color:#E6E7E8"/>
			<stop  offset="0.5594" style="stop-color:#CFD0D1"/>
			<stop  offset="0.8087" style="stop-color:#949597"/>
			<stop  offset="1" style="stop-color:#626366"/>
		</linearGradient>
		<path id="XMLID_30_" class="st3" d="M274,196.7l-3.2,6h0c0,0.3,0,0.6,0,0.9c0,31.6-9.3,55.6-20.8,55.6
			c-11.5,0-20.8-23.9-20.8-55.6c0-0.3,0-0.7,0-1l-3.2-5.8c-0.1,2.2-0.1,4.5-0.1,6.9c0,35.8,10.8,62.9,24.1,62.9
			c13.3,0,24.1-27.1,24.1-62.9C274.1,201.2,274,198.9,274,196.7z"/>
		<linearGradient id="SVGID_2_" gradientUnits="userSpaceOnUse" x1="250" y1="197.7623" x2="250" y2="137.1117">
			<stop  offset="0" style="stop-color:#E6E7E8"/>
			<stop  offset="0.44" style="stop-color:#E6E7E8"/>
			<stop  offset="0.5594" style="stop-color:#CFD0D1"/>
			<stop  offset="0.8087" style="stop-color:#949597"/>
			<stop  offset="1" style="stop-color:#626366"/>
		</linearGradient>
		<path class="st4" d="M268.9,179.4c-6,0.5-12.3,0.7-18.9,0.7s-12.9-0.3-18.9-0.7l0,0l-3.9,3c7.2,0.7,14.8,1,22.8,1
			c8,0,15.6-0.4,22.8-1L268.9,179.4L268.9,179.4z M338.3,148.4c-4.8-16.4-44.1-28.5-88.3-28.5c-44.2,0-83.5,12.1-88.3,28.5
			c-4.1,14.2,18.5,27.4,54.1,32.7l-3.1-3.9v0c-28.8-5.1-46-16-42-27.6c4.8-14.1,39.6-24.3,79.3-24.3c39.7,0,74.5,10.2,79.3,24.3
			c4,11.6-13.2,22.5-42,27.6l0,0l-3.1,3.9C319.8,175.8,342.4,162.6,338.3,148.4z"/>
		<path id="XMLID_27_" class="st5" d="M352.4,159.8c5.9,5.1,10.9,10.6,14.8,16.5c-1.4-9.6-5-18.3-10.4-25.7c-1.5-1.2-3-2.4-4.5-3.5
			c0.2,0.6,0.4,1.3,0.6,1.9C353.7,152.6,353.5,156.3,352.4,159.8z"/>
		<path id="XMLID_26_" class="st5" d="M147.6,159.8c-1.2-3.5-1.3-7.2-0.4-10.9c0.2-0.7,0.4-1.3,0.7-2c-1.6,1.2-3.2,2.4-4.7,3.7
			c-5.3,7.4-9,16.2-10.4,25.7C136.8,170.4,141.7,164.9,147.6,159.8z"/>
		<linearGradient id="SVGID_3_" gradientUnits="userSpaceOnUse" x1="250" y1="107.4065" x2="250" y2="303.873">
			<stop  offset="0" style="stop-color:#C5C7C9"/>
			<stop  offset="4.758810e-002" style="stop-color:#D4D5D7"/>
			<stop  offset="0.12" style="stop-color:#E6E7E8"/>
			<stop  offset="0.1242" style="stop-color:#E8E9EA"/>
			<stop  offset="0.1469" style="stop-color:#EFEFF0"/>
			<stop  offset="0.21" style="stop-color:#F1F1F2"/>
			<stop  offset="0.545" style="stop-color:#F1F1F2"/>
			<stop  offset="0.6115" style="stop-color:#CCCCCE"/>
			<stop  offset="0.692" style="stop-color:#A6A7A9"/>
			<stop  offset="0.7722" style="stop-color:#88898B"/>
			<stop  offset="0.851" style="stop-color:#737477"/>
			<stop  offset="0.9278" style="stop-color:#66676A"/>
			<stop  offset="1" style="stop-color:#626366"/>
		</linearGradient>
		<path class="st6" d="M97.8,205.6c0-54.3,68.1-98.2,152.2-98.2c84,0,152.2,44,152.2,98.2c0,54.3-68.1,98.2-152.2,98.2
			C166,303.9,97.8,259.9,97.8,205.6z M250,294c75,0,135.9-39.7,135.9-88.6c0-48.9-60.8-88.6-135.9-88.6
			c-75.1,0-135.9,39.7-135.9,88.6C114.1,254.3,174.9,294,250,294z"/>
		<path id="XMLID_10_" class="st7" d="M113.2,205.4c0,49.4,61.4,89.5,136.8,89.5c75.4,0,136.8-40.2,136.8-89.5
			s-61.4-89.5-136.8-89.5C174.6,115.9,113.2,156,113.2,205.4z M115,205.4c0-48.3,60.6-87.7,135-87.7c74.4,0,135,39.3,135,87.7
			c0,48.3-60.6,87.7-135,87.7C175.6,293.1,115,253.7,115,205.4z"/>
		<linearGradient id="SVGID_4_" gradientUnits="userSpaceOnUse" x1="250.0023" y1="107.3986" x2="250.0023" y2="303.8615">
			<stop  offset="0" style="stop-color:#C5C7C9"/>
			<stop  offset="4.758810e-002" style="stop-color:#D4D5D7"/>
			<stop  offset="0.12" style="stop-color:#E6E7E8"/>
			<stop  offset="0.1242" style="stop-color:#E8E9EA"/>
			<stop  offset="0.1469" style="stop-color:#EFEFF0"/>
			<stop  offset="0.21" style="stop-color:#F1F1F2"/>
			<stop  offset="0.545" style="stop-color:#F1F1F2"/>
			<stop  offset="0.6115" style="stop-color:#CCCCCE"/>
			<stop  offset="0.692" style="stop-color:#A6A7A9"/>
			<stop  offset="0.7722" style="stop-color:#88898B"/>
			<stop  offset="0.851" style="stop-color:#737477"/>
			<stop  offset="0.9278" style="stop-color:#66676A"/>
			<stop  offset="1" style="stop-color:#626366"/>
		</linearGradient>
		<path class="st8" d="M214.3,206.5c0-47.3,16-86.6,35.7-86.6s35.7,39.3,35.7,86.6c0,47.8-16,86.6-35.7,86.6
			C230.3,293.1,214.3,254.3,214.3,206.5z M250,266.5c13.3,0,24.1-27.1,24.1-62.9c0-37.2-10.8-62.8-24.1-62.8s-24.1,25.6-24.1,62.8
			C225.9,239.3,236.7,266.5,250,266.5z"/>
		<linearGradient id="SVGID_5_" gradientUnits="userSpaceOnUse" x1="250" y1="107.412" x2="250" y2="303.8807">
			<stop  offset="0" style="stop-color:#C5C7C9"/>
			<stop  offset="4.758810e-002" style="stop-color:#D4D5D7"/>
			<stop  offset="0.12" style="stop-color:#E6E7E8"/>
			<stop  offset="0.1242" style="stop-color:#E8E9EA"/>
			<stop  offset="0.1469" style="stop-color:#EFEFF0"/>
			<stop  offset="0.21" style="stop-color:#F1F1F2"/>
			<stop  offset="0.545" style="stop-color:#F1F1F2"/>
			<stop  offset="0.6115" style="stop-color:#CCCCCE"/>
			<stop  offset="0.692" style="stop-color:#A6A7A9"/>
			<stop  offset="0.7722" style="stop-color:#88898B"/>
			<stop  offset="0.851" style="stop-color:#737477"/>
			<stop  offset="0.9278" style="stop-color:#66676A"/>
			<stop  offset="1" style="stop-color:#626366"/>
		</linearGradient>
		<path class="st9" d="M147.2,149c3.9-16.2,51.4-39.7,102.8-39.7c51.5,0,97.3,16.8,102.8,39.7c6.2,25.7-39.5,48.9-102.8,48.9
			C186.7,197.8,141,174.6,147.2,149z M250,119.9c-44.2,0-83.5,12.1-88.3,28.5c-5.3,18.4,33.9,35,88.3,35c54.4,0,93.6-16.6,88.3-35
			C333.5,132,294.2,119.9,250,119.9z"/>
		<linearGradient id="SVGID_6_" gradientUnits="userSpaceOnUse" x1="250.0022" y1="148.1439" x2="250.0022" y2="204.1402">
			<stop  offset="5.618000e-003" style="stop-color:#E6E7E8"/>
			<stop  offset="1" style="stop-color:#6D6E70"/>
		</linearGradient>
		<path class="st10" d="M226,196.7L226,196.7l3.3,6c6.6,0.6,13.6,0.9,20.7,0.9c7.2,0,14.1-0.3,20.8-0.9l3.2-6l0,0
			c-7.6,0.8-15.7,1.2-24,1.2C241.7,197.8,233.6,197.4,226,196.7z M353.4,154.5c-0.8,18.4-27.9,34.6-67.9,40.7l0,0l3.9,4.9
			C328.5,192.8,354.3,174.8,353.4,154.5z M146.6,154.5c-0.9,20.3,24.8,38.3,64,45.6l3.9-4.9l0,0
			C174.5,189.1,147.5,172.8,146.6,154.5z"/>
		<linearGradient id="XMLID_81_" gradientUnits="userSpaceOnUse" x1="268.6257" y1="107.4042" x2="268.6257" y2="203.5881">
			<stop  offset="0" style="stop-color:#E6E7E8"/>
			<stop  offset="0.44" style="stop-color:#E6E7E8"/>
			<stop  offset="0.5594" style="stop-color:#CFD0D1"/>
			<stop  offset="0.8087" style="stop-color:#949597"/>
			<stop  offset="1" style="stop-color:#626366"/>
		</linearGradient>
		<path id="XMLID_14_" class="st11" d="M284.2,181L284.2,181l3.1-3.9c-5.4-34.2-20-57.2-37.2-57.2
			C266.1,119.9,279.6,145.9,284.2,181z"/>
		<linearGradient id="XMLID_82_" gradientUnits="userSpaceOnUse" x1="231.3766" y1="107.4042" x2="231.3766" y2="203.5881">
			<stop  offset="0" style="stop-color:#E6E7E8"/>
			<stop  offset="0.44" style="stop-color:#E6E7E8"/>
			<stop  offset="0.5594" style="stop-color:#CFD0D1"/>
			<stop  offset="0.8087" style="stop-color:#949597"/>
			<stop  offset="1" style="stop-color:#626366"/>
		</linearGradient>
		<path id="XMLID_13_" class="st12" d="M215.8,181c4.5-35.2,18.1-61.1,34.2-61.1c-17.2,0-31.9,23-37.3,57.2L215.8,181L215.8,181z"/>
		<linearGradient id="XMLID_84_" gradientUnits="userSpaceOnUse" x1="230.2697" y1="107.4038" x2="230.2697" y2="266.4699">
			<stop  offset="0" style="stop-color:#E6E7E8"/>
			<stop  offset="0.44" style="stop-color:#E6E7E8"/>
			<stop  offset="0.5594" style="stop-color:#CFD0D1"/>
			<stop  offset="0.8087" style="stop-color:#949597"/>
			<stop  offset="1" style="stop-color:#626366"/>
		</linearGradient>
		<path id="XMLID_12_" class="st13" d="M214.3,206.5c0-3.8,0.1-7.6,0.3-11.3h0l-3.9,4.9c-0.1,2.1-0.1,4.2-0.1,6.4
			c0,50.6,17.3,86.6,39.5,86.6C230.3,293.1,214.3,254.3,214.3,206.5z"/>
		<linearGradient id="XMLID_85_" gradientUnits="userSpaceOnUse" x1="269.735" y1="107.4038" x2="269.735" y2="266.4699">
			<stop  offset="0" style="stop-color:#E6E7E8"/>
			<stop  offset="0.44" style="stop-color:#E6E7E8"/>
			<stop  offset="0.5594" style="stop-color:#CFD0D1"/>
			<stop  offset="0.8087" style="stop-color:#949597"/>
			<stop  offset="1" style="stop-color:#626366"/>
		</linearGradient>
		<path id="XMLID_11_" class="st14" d="M289.4,200.1l-3.9-4.9h0c0.2,3.7,0.3,7.5,0.3,11.3c0,47.8-16,86.6-35.7,86.6
			c22.1,0,39.5-35.9,39.5-86.6C289.5,204.3,289.4,202.2,289.4,200.1z"/>
	</g>
	<g id="XMLID_48_">
		<path id="XMLID_58_" class="st15" d="M249.7,362.4c0-17.1,13.9-31,31-31c17.1,0,31,13.9,31,31c0,17.1-13.9,31-31,31
			C263.6,393.4,249.7,379.5,249.7,362.4z M280.7,382c9.6,0,17.3-8.8,17.3-19.6c0-10.8-7.7-19.6-17.3-19.6c-9.5,0-17.3,8.8-17.3,19.6
			C263.4,373.2,271.2,382,280.7,382z"/>
		<path id="XMLID_57_" class="st15" d="M346.8,344.3V392h-13v-47.6h0h-18.3v-10.8H365v10.8L346.8,344.3L346.8,344.3L346.8,344.3z"/>
		<path id="XMLID_54_" class="st15" d="M380.8,378.8L380.8,378.8l-5,13.1h-15.2l24.1-58.4h8.1h8.1L425,392h-15.2l-5-13.1l0,0h-12
			H380.8z M392.8,369h8.2l0,0l-8.2-21.4h-0.1l-8.2,21.4l0,0H392.8z"/>
		<path id="XMLID_53_" class="st15" d="M106.3,344.3V392H93.2v-47.6h0H75v-10.8h49.5v10.8L106.3,344.3L106.3,344.3L106.3,344.3z"/>
		<path id="XMLID_50_" class="st15" d="M127.8,362.4c0-17.1,13.9-31,31-31c17.1,0,31,13.9,31,31c0,17.1-13.9,31-31,31
			C141.7,393.4,127.8,379.5,127.8,362.4z M158.8,382c9.5,0,17.3-8.8,17.3-19.6c0-10.8-7.7-19.6-17.3-19.6c-9.6,0-17.3,8.8-17.3,19.6
			C141.5,373.2,149.2,382,158.8,382z"/>
		<path id="XMLID_49_" class="st15" d="M219.7,392h6.6v-21.9v-0.3l22.8-36.2h-15.2l-14.1,24.5l-14.1-24.5h-15.2l22.8,36.2v0.3V392
			L219.7,392L219.7,392z"/>
	</g>
</g>
</svg>
